<svg width="26" height="26" viewBox="0 0 26 26" fill="none" xmlns="http://www.w3.org/2000/svg">
<path fill-rule="evenodd" clip-rule="evenodd" d="M2.16663 13.0163C2.16663 7.3094 6.72746 2.16669 13.0216 2.16669C19.175 2.16669 23.8333 7.21176 23.8333 12.9837C23.8333 19.678 18.3733 23.8334 13 23.8334C11.2233 23.8334 9.25163 23.356 7.66996 22.4229C7.11746 22.0866 6.65163 21.837 6.05579 22.0323L3.86746 22.6833C3.31496 22.8569 2.81663 22.4229 2.97913 21.837L3.70496 19.4067C3.82413 19.0704 3.80246 18.7123 3.62913 18.4303C2.69746 16.716 2.16663 14.839 2.16663 13.0163ZM11.5916 13.0163C11.5916 13.7866 12.2091 14.405 12.9783 14.4159C13.7475 14.4159 14.365 13.7866 14.365 13.0271C14.365 12.2568 13.7475 11.6384 12.9783 11.6384C12.22 11.6275 11.5916 12.2568 11.5916 13.0163ZM16.5858 13.0271C16.5858 13.7866 17.2033 14.4159 17.9725 14.4159C18.7416 14.4159 19.3591 13.7866 19.3591 13.0271C19.3591 12.2568 18.7416 11.6384 17.9725 11.6384C17.2033 11.6384 16.5858 12.2568 16.5858 13.0271ZM7.98413 14.4159C7.22579 14.4159 6.59746 13.7866 6.59746 13.0271C6.59746 12.2568 7.21496 11.6384 7.98413 11.6384C8.75329 11.6384 9.37079 12.2568 9.37079 13.0271C9.37079 13.7866 8.75329 14.405 7.98413 14.4159Z" fill="#111827"/>
</svg>
