<svg width="26" height="26" viewBox="0 0 26 26" fill="none" xmlns="http://www.w3.org/2000/svg">
<path fill-rule="evenodd" clip-rule="evenodd" d="M20.6606 20.659C17.3498 23.9702 12.4472 24.6856 8.43524 22.8302C7.84297 22.5917 7.3574 22.399 6.89578 22.399C5.60999 22.4066 4.00956 23.6534 3.17777 22.8226C2.34598 21.9907 3.59366 20.389 3.59366 19.0955C3.59366 18.6338 3.40858 18.1569 3.17014 17.5634C1.31386 13.5521 2.03024 8.64793 5.34107 5.33783C9.56752 1.10982 16.4341 1.10982 20.6606 5.33674C24.8947 9.57128 24.887 16.4321 20.6606 20.659Z" stroke="#6B7280" stroke-width="1.5" stroke-linecap="round" stroke-linejoin="round"/>
<path d="M17.2676 13.4474H17.2774" stroke="#6B7280" stroke-width="2" stroke-linecap="round" stroke-linejoin="round"/>
<path d="M12.9246 13.4474H12.9344" stroke="#6B7280" stroke-width="2" stroke-linecap="round" stroke-linejoin="round"/>
<path d="M8.58147 13.4474H8.59122" stroke="#6B7280" stroke-width="2" stroke-linecap="round" stroke-linejoin="round"/>
</svg>
