<svg width="26" height="26" viewBox="0 0 26 26" fill="none" xmlns="http://www.w3.org/2000/svg">
<path d="M9.92036 22.5024V19.1801C9.92034 18.335 10.6093 17.6484 11.4628 17.6427H14.5894C15.447 17.6427 16.1423 18.331 16.1423 19.1801V19.1801V22.5127C16.1421 23.2302 16.7205 23.8165 17.445 23.8334H19.5294C21.6073 23.8334 23.2917 22.1658 23.2917 20.1087V20.1087V10.6577C23.2806 9.84842 22.8968 9.08848 22.2495 8.59414L15.1209 2.9091C13.8721 1.91922 12.0968 1.91922 10.8479 2.9091L3.75057 8.60446C3.10082 9.09679 2.71638 9.85799 2.70837 10.668V20.1087C2.70837 22.1658 4.39282 23.8334 6.47069 23.8334H8.55508C9.29759 23.8334 9.89951 23.2375 9.89951 22.5024V22.5024" stroke="#6B7280" stroke-width="1.5" stroke-linecap="round" stroke-linejoin="round"/>
</svg>
