<svg width="26" height="26" viewBox="0 0 26 26" fill="none" xmlns="http://www.w3.org/2000/svg">
<path d="M9.89605 22.5045V19.1919C9.89605 18.3463 10.5866 17.6609 11.4383 17.6609H14.552C14.9611 17.6609 15.3534 17.8222 15.6426 18.1093C15.9318 18.3964 16.0943 18.7859 16.0943 19.1919V22.5045C16.0917 22.856 16.2306 23.1941 16.4801 23.4435C16.7296 23.693 17.0691 23.8334 17.4232 23.8333H19.5475C20.5396 23.8359 21.492 23.4464 22.1945 22.7509C22.8969 22.0554 23.2917 21.1109 23.2917 20.126V10.6891C23.2917 9.89352 22.9364 9.13885 22.3217 8.62841L15.0952 2.89888C13.8382 1.8943 12.0371 1.92673 10.8175 2.97591L3.75597 8.62841C3.11218 9.1238 2.72739 9.88071 2.70837 10.6891V20.1164C2.70837 22.1692 4.3847 23.8333 6.45256 23.8333H8.52835C9.26387 23.8334 9.86162 23.2443 9.86695 22.5141L9.89605 22.5045Z" fill="#111827"/>
</svg>
