<svg width="26" height="26" viewBox="0 0 26 26" fill="none" xmlns="http://www.w3.org/2000/svg">
<path fill-rule="evenodd" clip-rule="evenodd" d="M17.1707 2.7091C17.8543 2.7091 18.5368 2.80551 19.1857 3.02326C23.1843 4.32326 24.6251 8.71076 23.4215 12.5458C22.739 14.5055 21.6232 16.2941 20.1618 17.7555C18.0699 19.7813 15.7743 21.5797 13.3032 23.1288L13.0324 23.2924L12.7507 23.118C10.2709 21.5797 7.96236 19.7813 5.85094 17.7447C4.39927 16.2833 3.28236 14.5055 2.58902 12.5458C1.36486 8.71076 2.80569 4.32326 6.84761 3.00051C7.16177 2.89218 7.48569 2.81635 7.81069 2.7741H7.94069C8.24511 2.72968 8.54736 2.7091 8.85069 2.7091H8.96986C9.65236 2.72968 10.3132 2.84885 10.9534 3.0666H11.0174C11.0607 3.08718 11.0932 3.10993 11.1149 3.13051C11.3543 3.20743 11.5807 3.2941 11.7974 3.41326L12.209 3.59743C12.3085 3.65048 12.4201 3.73155 12.5166 3.80161C12.5778 3.84599 12.6328 3.88597 12.6749 3.9116C12.6925 3.92203 12.7105 3.93251 12.7286 3.94309C12.8215 3.99731 12.9183 4.05379 12.9999 4.11635C14.2034 3.1966 15.6649 2.69826 17.1707 2.7091ZM20.0524 10.5091C20.4965 10.4972 20.8757 10.1408 20.9082 9.68468V9.55576C20.9407 8.03801 20.0209 6.66326 18.6224 6.13243C18.1782 5.97968 17.6907 6.2191 17.5282 6.6741C17.3765 7.1291 17.6149 7.62743 18.0699 7.78885C18.7643 8.04885 19.229 8.73243 19.229 9.48968V9.52326C19.2084 9.77135 19.2832 10.0108 19.4349 10.1949C19.5865 10.3791 19.814 10.4863 20.0524 10.5091Z" fill="#111827"/>
</svg>
