<svg width="26" height="26" viewBox="0 0 26 26" fill="none" xmlns="http://www.w3.org/2000/svg">
<path fill-rule="evenodd" clip-rule="evenodd" d="M2.16663 11.5591C2.16663 6.37182 6.32699 2.16669 11.4591 2.16669C13.9236 2.16669 16.2871 3.15624 18.0298 4.91766C19.7725 6.67908 20.7515 9.06808 20.7515 11.5591C20.7515 16.7464 16.5911 20.9515 11.4591 20.9515C6.32699 20.9515 2.16663 16.7464 2.16663 11.5591ZM20.5978 19.1255L23.3653 21.3595H23.4134C23.9733 21.9254 23.9733 22.843 23.4134 23.4089C22.8535 23.9748 21.9457 23.9748 21.3857 23.4089L19.0891 20.7767C18.8719 20.558 18.7499 20.2609 18.7499 19.9511C18.7499 19.6413 18.8719 19.3442 19.0891 19.1255C19.5078 18.7096 20.179 18.7096 20.5978 19.1255Z" fill="#111827"/>
</svg>
