<svg width="26" height="26" viewBox="0 0 26 26" fill="none" xmlns="http://www.w3.org/2000/svg">
<path fill-rule="evenodd" clip-rule="evenodd" d="M10.1578 21.6969L19.6763 9.38756C20.1937 8.72376 20.3776 7.95632 20.2052 7.17491C20.0557 6.46453 19.6189 5.78909 18.9636 5.27668L17.3657 4.00732C15.9747 2.90099 14.2503 3.01745 13.2617 4.28681L12.1925 5.6738C12.0546 5.84731 12.0891 6.10352 12.2615 6.24326C12.2615 6.24326 14.963 8.40933 15.0205 8.45591C15.2045 8.6306 15.3424 8.86351 15.3769 9.143C15.4344 9.69034 15.055 10.2027 14.4917 10.2726C14.2273 10.3076 13.9744 10.226 13.7905 10.0746L10.951 7.81541C10.813 7.71176 10.6061 7.73389 10.4911 7.87364L3.74307 16.6078C3.30622 17.1551 3.15678 17.8655 3.30622 18.5526L4.16841 22.2908C4.2144 22.4888 4.38684 22.6285 4.59376 22.6285L8.3874 22.582C9.07715 22.5703 9.72092 22.2559 10.1578 21.6969ZM15.4697 20.5327H21.6556C22.2591 20.5327 22.75 21.03 22.75 21.6413C22.75 22.2539 22.2591 22.75 21.6556 22.75H15.4697C14.8661 22.75 14.3753 22.2539 14.3753 21.6413C14.3753 21.03 14.8661 20.5327 15.4697 20.5327Z" fill="#111827"/>
</svg>
